<svg xmlns="http://www.w3.org/2000/svg" width="82" height="30" viewBox="0 0 82 30" fill="none">
<g clip-path="url(#clip0_26425_60781)">
<path d="M15.6326 16.852H17.8691L9.87365 5.41797H8.16833L-0.0507812 16.852H2.18571L8.83927 7.20716L12.9768 12.7145C12.9768 12.7145 10.4887 10.8974 7.38555 10.7017C6.93826 11.3447 6.60278 11.9877 6.60278 11.9877C8.30811 12.2393 11.6069 12.4629 15.6326 16.852Z" fill="white"/>
<path d="M79.7615 16.852H81.998L74.0026 5.41797H72.2972L64.0781 16.852H66.3146L72.9682 7.23512L77.1057 12.7145C77.1057 12.7145 74.6176 10.8974 71.5145 10.7017C71.0672 11.3726 70.7317 12.0156 70.7317 12.0156C72.437 12.2393 75.7358 12.4629 79.7615 16.852Z" fill="white"/>
<path d="M21.9764 10.3387H29.0772C30.0837 10.3387 30.8944 9.52802 30.8944 8.5216C30.8944 7.51518 30.0837 6.70445 29.0772 6.70445H21.1656V16.6289H19.4883V5.30664H29.3009C31.0901 5.30664 32.5438 6.76036 32.5438 8.54955C32.5438 10.3387 31.0901 11.8204 29.3009 11.8204H26.7289C26.7289 11.8204 30.6148 12.2118 32.7115 16.8246H30.6987C30.6987 15.902 26.8967 12.072 21.9484 11.8484C21.9764 11.0097 21.9764 10.3387 21.9764 10.3387Z" fill="white"/>
<path d="M40.5394 10.0311V8.10216C39.8684 8.63332 38.6384 8.68923 38.6384 8.68923V10.115H39.7566C39.6448 10.8698 38.3029 12.2676 36.961 12.2676C36.7373 12.2676 36.2341 12.0719 36.2341 11.0935C36.2341 7.99033 40.6512 5.44632 41.9651 5.44632V4.99902C35.6191 6.08931 34.6406 9.30427 34.6406 10.9537C34.6406 13.302 35.3954 13.7773 36.318 13.7773C39.477 13.7773 40.5394 10.3107 40.5394 10.0311Z" fill="white"/>
<path d="M45.7411 10.8701C45.7411 8.15832 44.5669 6.59277 43.5046 6.59277C42.638 6.59277 41.967 7.71102 41.967 8.96905C41.967 10.1152 42.6659 11.6808 44.3153 11.6808C43.4487 15.7903 38.808 15.4828 37.4102 15.4828C38.4445 16.042 38.6682 16.1538 40.5972 16.1538C45.0422 16.1538 45.7411 12.6033 45.7411 10.8701ZM43.7562 8.15832C45.1261 8.15832 45.0422 9.97547 44.7626 10.5625C42.2186 10.0034 42.3863 8.15832 43.7562 8.15832Z" fill="white"/>
<path d="M46.3008 6.81565L47.5867 5.72536L47.0276 5.27807C47.0276 5.27807 46.3846 6.20062 46.1051 6.08879C45.7976 5.97697 45.4062 5.78128 45.5459 5.27807C45.6857 4.77486 44.875 5.16624 44.875 5.61354C44.903 6.06084 45.7416 6.81565 46.3008 6.81565Z" fill="white"/>
<path d="M48.2003 6.08887L47.082 7.12324C50.2131 8.71674 50.2411 10.3382 50.2411 11.121C50.2411 14.0564 48.2841 15.4542 47.8368 16.1531C50.5206 15.1187 51.6389 12.9102 51.6389 10.9532C51.6389 8.0458 49.0949 6.59208 48.2003 6.08887Z" fill="white"/>
<path d="M48.5929 9.5C47.5306 9.5 47.5585 16.3493 41.8555 16.8245C43.9242 16.8245 47.7263 17.9148 48.7886 11.2333C49.4316 11.2333 49.2079 9.5 48.5929 9.5Z" fill="white"/>
<path d="M40.8487 13.4414H39.7305V14.4478H40.8487V13.4414Z" fill="white"/>
<path d="M41.7706 12.2393H40.6523V13.2457H41.7706V12.2393Z" fill="white"/>
<path d="M67.4332 5.30664H65.6441L59.8292 11.8204L53.9025 5.30664H52.1133L58.9625 12.7989V16.8246H60.7517V12.7989L67.4332 5.30664Z" fill="white"/>
<path d="M26.426 22.3486C26.37 22.2088 26.2862 22.097 26.1744 21.9572C26.0625 21.8454 25.9507 21.7336 25.783 21.6497C25.6432 21.5658 25.4755 21.5099 25.2798 21.454C25.0841 21.3981 24.8884 21.3701 24.6927 21.3701C24.4131 21.3701 24.1615 21.3981 23.9379 21.482C23.7142 21.5658 23.4906 21.6777 23.3228 21.8174C23.1551 21.9572 23.0153 22.125 22.9314 22.3486C22.8476 22.5443 22.7917 22.7959 22.7917 23.0475C22.7917 23.2991 22.8476 23.5507 22.9314 23.7464C23.0153 23.9421 23.1551 24.1378 23.3228 24.2776C23.4906 24.4174 23.6863 24.5292 23.9379 24.6131C24.1615 24.6969 24.4411 24.7249 24.7206 24.7249C25.1679 24.7249 25.5593 24.641 25.8389 24.4733C26.1184 24.3055 26.3141 24.0819 26.4539 23.8023L26.9012 23.998C26.7335 24.3894 26.4819 24.669 26.1184 24.8647C25.755 25.0604 25.2798 25.1722 24.6927 25.1722C24.3572 25.1722 24.0497 25.1163 23.7701 25.0324C23.4906 24.9485 23.239 24.8088 23.0153 24.6131C22.7917 24.4453 22.6239 24.2217 22.5121 23.9421C22.4003 23.6905 22.3164 23.383 22.3164 23.0475C22.3164 22.712 22.3723 22.4045 22.5121 22.1529C22.6519 21.9013 22.8196 21.6777 23.0433 21.482C23.2669 21.2863 23.5185 21.1745 23.826 21.0626C24.1336 20.9788 24.4411 20.9229 24.7765 20.9229C25.0282 20.9229 25.2798 20.9508 25.5034 21.0067C25.7271 21.0626 25.9507 21.1465 26.1184 21.2583C26.3141 21.3701 26.4539 21.482 26.5937 21.6218C26.7335 21.7615 26.8453 21.9293 26.9012 22.097L26.426 22.3486Z" fill="white"/>
<path d="M33.1317 25.0602H32.4048L30.9791 23.5506H29.0501V25.0602H28.5469V21.0625H31.678C32.1812 21.0625 32.5446 21.1743 32.7962 21.398C33.0478 21.6216 33.1596 21.9291 33.1596 22.3205C33.1596 22.5162 33.1317 22.684 33.0478 22.8237C32.9639 22.9635 32.8521 23.1033 32.7403 23.1872C32.6005 23.299 32.4607 23.3829 32.265 23.4388C32.0973 23.4947 31.8737 23.5226 31.678 23.5506L33.1317 25.0602ZM29.0501 21.5378V23.0753H31.4823C31.8457 23.0753 32.1253 23.0194 32.321 22.8796C32.5166 22.7399 32.6005 22.5442 32.6005 22.2926C32.6005 22.041 32.5166 21.8453 32.3769 21.7334C32.2091 21.5937 31.9855 21.5378 31.65 21.5378H29.0501Z" fill="white"/>
<path d="M39.2548 23.2148C39.2548 23.5502 39.1989 23.8577 39.0871 24.1094C38.9753 24.361 38.8075 24.5567 38.6119 24.7244C38.4162 24.8921 38.1646 25.004 37.885 25.0878C37.6054 25.1717 37.2979 25.1996 36.9624 25.1996C36.627 25.1996 36.3474 25.1717 36.0678 25.0878C35.7883 25.004 35.5646 24.8921 35.3689 24.7244C35.1732 24.5567 35.0335 24.361 34.9216 24.1094C34.8098 23.8577 34.7539 23.5782 34.7539 23.2148V21.0342H35.2851V23.1309C35.2851 23.4105 35.313 23.6621 35.3969 23.8578C35.4808 24.0534 35.5926 24.2212 35.7324 24.333C35.8722 24.4448 36.0399 24.5567 36.2635 24.6126C36.4592 24.6685 36.6829 24.6964 36.9345 24.6964C37.1861 24.6964 37.4377 24.6685 37.6334 24.6126C37.857 24.5567 38.0248 24.4728 38.1925 24.333C38.3603 24.2212 38.4721 24.0534 38.5559 23.8578C38.6398 23.6621 38.6957 23.4105 38.6957 23.1309V21.0342H39.1989V23.2148H39.2548Z" fill="white"/>
<path d="M41.6595 21.0625H41.1562V25.0602H41.6595V21.0625Z" fill="white"/>
<path d="M47.3033 22.181C47.2194 21.9014 47.0517 21.7057 46.828 21.566C46.5764 21.4262 46.2409 21.3703 45.7657 21.3703C45.4582 21.3703 45.2065 21.3982 45.0109 21.4262C44.7872 21.4541 44.6195 21.51 44.4797 21.566C44.3399 21.6219 44.256 21.7057 44.1722 21.8176C44.1163 21.9014 44.0883 22.0133 44.0883 22.1251C44.0883 22.2928 44.1163 22.4046 44.2001 22.4885C44.284 22.5724 44.3679 22.6562 44.4797 22.6842C44.5915 22.7401 44.7313 22.7681 44.8711 22.7681C45.0109 22.7681 45.1506 22.796 45.2904 22.796H45.4861C45.542 22.796 45.6259 22.796 45.6818 22.796C45.7657 22.796 45.8495 22.796 45.9334 22.796H46.2689C46.5205 22.796 46.7162 22.824 46.9398 22.8519C47.1355 22.8799 47.3033 22.9358 47.471 23.0197C47.6108 23.1035 47.7226 23.2154 47.8065 23.3552C47.8903 23.4949 47.9462 23.6627 47.9462 23.8584C47.9462 24.0541 47.9183 24.2497 47.8344 24.4175C47.7506 24.5852 47.6108 24.725 47.443 24.8368C47.2753 24.9487 47.0237 25.0325 46.7441 25.1164C46.4646 25.1723 46.1291 25.2282 45.7377 25.2282C45.542 25.2282 45.3743 25.2282 45.2065 25.2282C45.0668 25.2282 44.927 25.2003 44.8152 25.2003C44.7033 25.1723 44.5915 25.1723 44.5076 25.1443C44.4238 25.1164 44.3399 25.0884 44.256 25.0605C44.0044 24.9487 43.8087 24.8089 43.669 24.6132C43.5292 24.4454 43.4733 24.2218 43.4453 23.9143H44.0044C44.0324 24.2218 44.2001 24.4454 44.4797 24.5852C44.7593 24.725 45.1786 24.8089 45.7377 24.8089C46.2968 24.8089 46.7162 24.725 46.9678 24.5852C47.2473 24.4454 47.3871 24.2218 47.3871 23.9422C47.3871 23.8304 47.3592 23.7465 47.3033 23.6347C47.2473 23.5229 47.1635 23.467 47.0796 23.4111C47.0237 23.3831 46.9398 23.3552 46.856 23.3552C46.7721 23.3272 46.6603 23.3272 46.5484 23.3272C46.4366 23.3272 46.3248 23.3272 46.213 23.2992C46.1011 23.2992 46.0173 23.2992 45.9334 23.2992C45.7936 23.2992 45.6818 23.2992 45.57 23.2992C45.4582 23.2992 45.3463 23.2992 45.2345 23.2992C45.0388 23.2992 44.8431 23.2713 44.6474 23.2433C44.4517 23.2154 44.256 23.1595 44.1163 23.0756C43.9485 22.9917 43.8087 22.8799 43.7249 22.7401C43.613 22.6003 43.5571 22.4046 43.5571 22.153C43.5571 21.9853 43.5851 21.8176 43.669 21.6778C43.7528 21.538 43.8647 21.3982 44.0603 21.3144C44.2281 21.2025 44.4517 21.1187 44.7593 21.0907C45.0388 21.0348 45.3743 21.0068 45.7936 21.0068C46.1291 21.0068 46.4366 21.0348 46.6603 21.0907C46.9119 21.1466 47.1076 21.2305 47.2753 21.3144C47.443 21.4262 47.5549 21.538 47.6667 21.6778C47.7506 21.8176 47.8344 22.0133 47.8624 22.209L47.3033 22.181Z" fill="white"/>
<path d="M53.8464 21.5098H50.1282V22.7958H53.427V23.2151H50.1282V24.585H53.9023V25.0602H49.625V21.0625H53.8464V21.5098Z" fill="white"/>
<path d="M59.0734 22.181C58.9895 21.9014 58.8218 21.7057 58.5981 21.566C58.3465 21.4262 58.0111 21.3703 57.5358 21.3703C57.2283 21.3703 56.9767 21.3982 56.781 21.4262C56.5574 21.4541 56.3896 21.51 56.2498 21.566C56.11 21.6219 56.0262 21.7057 55.9423 21.8176C55.8864 21.9014 55.8584 22.0133 55.8584 22.1251C55.8584 22.2928 55.8864 22.4046 55.9703 22.4885C56.0541 22.5724 56.138 22.6562 56.2498 22.6842C56.3617 22.7401 56.5014 22.7681 56.6412 22.7681C56.781 22.7681 56.9208 22.796 57.0606 22.796H57.2563C57.3122 22.796 57.396 22.796 57.4519 22.796C57.5358 22.796 57.6197 22.796 57.7036 22.796H58.039C58.2906 22.796 58.4863 22.824 58.71 22.8519C58.9057 22.8799 59.0734 22.9358 59.2411 23.0197C59.3809 23.1035 59.4927 23.2154 59.5766 23.3552C59.6605 23.4949 59.6884 23.6627 59.6884 23.8584C59.6884 24.0541 59.6605 24.2497 59.5766 24.4175C59.4927 24.5852 59.353 24.725 59.1852 24.8368C59.0175 24.9487 58.7659 25.0325 58.4863 25.1164C58.2068 25.1723 57.8713 25.2282 57.4799 25.2282C57.2842 25.2282 57.1165 25.2282 56.9487 25.2282C56.809 25.2282 56.6692 25.2003 56.5573 25.2003C56.4455 25.2003 56.3337 25.1723 56.2498 25.1443C56.166 25.1164 56.0821 25.0884 55.9982 25.0605C55.7466 24.9487 55.5509 24.8089 55.4111 24.6132C55.2714 24.4454 55.2155 24.2218 55.1875 23.9143H55.7466C55.7746 24.2218 55.9423 24.4454 56.2219 24.5852C56.5014 24.725 56.9208 24.8089 57.4799 24.8089C58.039 24.8089 58.4584 24.725 58.71 24.5852C58.9895 24.4454 59.1293 24.2218 59.1293 23.9422C59.1293 23.8304 59.1014 23.7465 59.0454 23.6347C58.9895 23.5229 58.9057 23.467 58.8218 23.4111C58.7659 23.3831 58.682 23.3552 58.5981 23.3552C58.5143 23.3272 58.4025 23.3272 58.2906 23.3272C58.1788 23.3272 58.067 23.3272 57.9552 23.2992C57.8433 23.2992 57.7595 23.2992 57.6756 23.2992C57.5358 23.2992 57.424 23.2992 57.3122 23.2992C57.2003 23.2992 57.0885 23.2992 56.9767 23.2992C56.781 23.2992 56.5853 23.2713 56.3896 23.2433C56.1939 23.2154 55.9982 23.1595 55.8584 23.0756C55.6907 22.9917 55.5509 22.8799 55.4671 22.7401C55.3552 22.6003 55.2993 22.4046 55.2993 22.153C55.2993 21.9853 55.3273 21.8176 55.4111 21.6778C55.495 21.538 55.6068 21.3982 55.8025 21.3144C55.9703 21.2025 56.1939 21.1187 56.5014 21.0907C56.781 21.0348 57.1165 21.0068 57.5358 21.0068C57.8713 21.0068 58.1788 21.0348 58.4025 21.0907C58.6541 21.1466 58.8498 21.2305 59.0175 21.3144C59.1852 21.4262 59.2971 21.538 59.4089 21.6778C59.4927 21.8176 59.5766 22.0133 59.6046 22.209L59.0734 22.181Z" fill="white"/>
</g>
<defs>
<clipPath id="clip0_26425_60781">
<rect width="82" height="30" fill="white" transform="translate(0 -0.000976562)"/>
</clipPath>
</defs>
</svg>